<svg id="Layer_1" data-name="Layer 1" xmlns="http://www.w3.org/2000/svg" xmlns:xlink="http://www.w3.org/1999/xlink" viewBox="0 0 150 100"><defs><style>.cls-1,.cls-4,.cls-5{fill:none;}.cls-2{clip-path:url(#clip-path);}.cls-3{fill:url(#linear-gradient);}.cls-4{stroke:#fff;}.cls-4,.cls-5{stroke-miterlimit:10;stroke-width:2px;}.cls-5{stroke:#fec14e;stroke-linecap:round;}</style><clipPath id="clip-path"><rect class="cls-1" x="-1974.67" y="-84.55" width="1677.33" height="790.19"/></clipPath><linearGradient id="linear-gradient" x1="13.34" y1="-89.42" x2="13.34" y2="705.64" gradientUnits="userSpaceOnUse"><stop offset="0" stop-color="#d7e4f7"/><stop offset="0.82" stop-color="#ebf2fb"/><stop offset="1" stop-color="#f0f5fc"/></linearGradient></defs><title>lottieflow</title><g class="cls-2"><path class="cls-3" d="M1008.34,528C493.68,528,417-89.42,13.34-89.42c-512.86,0-461.4,617.44-995,617.44-514.66,0-591.35-617.44-995-617.44V705.64h3980V-89.42C1490.48-89.42,1541.94,528,1008.34,528Z"/></g><polygon class="cls-4" points="73.86 18.23 50.52 58.4 70.81 58.4 70.81 81.63 97.6 41.86 74.06 41.86 73.86 18.23"/><path class="cls-5" d="M59.42,89a41.37,41.37,0,0,1,.2-78.18"/><path class="cls-5" d="M88.87,11.68a41.37,41.37,0,0,1-1.8,77.15"/><polyline class="cls-5" points="48.53 7.01 60.41 10.34 57.08 22.22"/><polyline class="cls-5" points="97.44 93.07 85.7 89.29 89.48 77.54"/></svg>